<svg width="30" height="30" viewBox="0 0 30 30" fill="none" xmlns="http://www.w3.org/2000/svg">
<path d="M19.6861 9.37461L21.2505 6.25169L24.3734 4.68731L21.2505 3.12292L19.6861 0L18.1217 3.12292L14.9988 4.68731L18.1217 6.25169L19.6861 9.37461ZM28.1233 11.2495L27.1858 9.37461L26.2483 11.2495L24.3734 12.187L26.2483 13.1245L27.1858 14.9994L28.1233 13.1245L29.9982 12.187L28.1233 11.2495ZM21.3442 15.6615L15.2039 14.765L12.4559 9.18712C11.9638 8.19107 10.54 8.17935 10.042 9.18712L7.29405 14.765L1.15368 15.6615C0.052165 15.8197 -0.393129 17.179 0.409572 17.9582L4.85665 22.294L3.80201 28.4226C3.61452 29.53 4.78048 30.362 5.7531 29.8406L11.249 26.9461L16.7448 29.8406C17.7233 30.3562 18.8834 29.53 18.6959 28.4226L17.6471 22.294L22.0942 17.9582C22.8911 17.179 22.4458 15.8197 21.3442 15.6615Z" fill="white"/>
</svg>
